[img]http://img809.imageshack.us/img809/7018/apes.jpg[/img]
[code] 
http://www.imdb.com/title/tt1318514/ 

During experiments to find a cure for Alzheimer\'s disease a genetically-enhanced chimpanzee uses its 

greater intelligence to lead other apes to freedom. 

SOURCE......: 1080p-CHD

Video
ID                                       : 1
Format                                   : AVC
Format/Info                              : Advanced Video Codec
Format profile                           : Main@L3.1
Format settings, CABAC                   : Yes
Format settings, ReFrames                : 4 frames
Codec ID                                 : avc1
Codec ID/Info                            : Advanced Video Coding
Duration                                 : 1h 44mn
Bit rate mode                            : Variable
Bit rate                                 : 2 939 Kbps
Width                                    : 1 280 pixels
Height                                   : 544 pixels
Display aspect ratio                     : 2.35:1
Frame rate mode                          : Variable
Frame rate                               : 23.976 fps
Minimum frame rate                       : 23.974 fps
Maximum frame rate                       : 23.981 fps
Color space                              : YUV
Chroma subsampling                       : 4:2:0
Bit depth                                : 8 bits
Scan type                                : Progressive
Bits/(Pixel*Frame)                       : 0.176
Stream size                              : 2.15 GiB (90%)
Writing library                          : x264 core 112
Encoding settings                        : cabac=1 / ref=2 / 

Audio
ID                                       : 2
Format                                   : AAC
Format/Info                              : Advanced Audio Codec
Format profile                           : LC
Codec ID                                 : 40
Duration                                 : 1h 44mn
Bit rate mode                            : Variable
Bit rate                                 : 320 Kbps
Maximum bit rate                         : 524 Kbps
Channel(s)                               : 6 channels
Channel positions                        : Front: L C R, Side: L R, LFE
Sampling rate                            : 48.0 KHz
Compression mode                         : Lossy
Stream size                              : 240 MiB (10%)
Encoded date                             : UTC 2011-11-09 23:41:52
Tagged date                              : UTC 2011-11-10 07:53:32

Notes:
ENJOY :)

GREETZ

MEMORY100|KINGSTON100|VISION|FLAWLESS|IMAGINE|RX|NOIR|REVELATiON|CM8|CHOICE|WBZ|SU|ViSUALiSE|REFILL|THE

PECKO|ILLUMINATI|Tripl3_R

AND TO ALL P2P AND SCENE PAST, PRESENT AND FUTURE  KEEP UP THE GOOD WORK !

[/code]
Screens:
[img]http://img403.imageshack.us/img403/9936/vlcsnap2011111111h34m59.png[/img]
[img]http://img263.imageshack.us/img263/5100/vlcsnap2011111111h27m48.png[/img]
[img]http://img217.imageshack.us/img217/133/vlcsnap2011111111h30m32.png[/img]
[img]http://img148.imageshack.us/img148/611/vlcsnap2011111111h31m07.png[/img]
[img]http://img41.imageshack.us/img41/1559/vlcsnap2011111111h33m24.png[/img]
[img]http://img94.imageshack.us/img94/5440/vlcsnap2011111111h33m47.png[/img]
